<svg height="512pt" viewBox="0 -46 512 512" width="512pt" xmlns="http://www.w3.org/2000/svg"><path d="m442 280c5.519531 0 10-4.480469 10-10s-4.480469-10-10-10-10 4.480469-10 10 4.480469 10 10 10zm0 0"/><path d="m150 380c5.519531 0 10-4.480469 10-10s-4.480469-10-10-10-10 4.480469-10 10 4.480469 10 10 10zm0 0"/><path d="m110 380c5.519531 0 10-4.480469 10-10s-4.480469-10-10-10-10 4.480469-10 10 4.480469 10 10 10zm0 0"/><path d="m70 380c5.519531 0 10-4.480469 10-10s-4.480469-10-10-10-10 4.480469-10 10 4.480469 10 10 10zm0 0"/><path d="m70 420h372c38.597656 0 70-31.402344 70-70v-20c0-5.523438-4.476562-10-10-10h-10v-290c0-16.542969-13.457031-30-30-30h-412c-16.542969 0-30 13.457031-30 30v290h-10c-5.523438 0-10 4.476562-10 10v20c0 38.597656 31.402344 70 70 70zm-30-390c0-5.515625 4.484375-10 10-10h412c5.515625 0 10 4.484375 10 10v290h-166c-5.523438 0-10 4.476562-10 10v10h-80v-10c0-5.523438-4.476562-10-10-10h-166zm-20 310h176v10c0 5.523438 4.476562 10 10 10h100c5.523438 0 10-4.476562 10-10v-10h176v10c0 27.570312-22.429688 50-50 50h-372c-27.570312 0-50-22.429688-50-50zm0 0"/><path d="m442 240c5.523438 0 10-4.476562 10-10v-80c0-5.523438-4.476562-10-10-10s-10 4.476562-10 10v80c0 5.523438 4.476562 10 10 10zm0 0"/><path d="m306 270v-50.558594c44.9375-4.992187 80-43.195312 80-89.441406 0-49.625-40.375-90-90-90-46.246094 0-84.449219 35.0625-89.441406 80h-50.558594c-5.523438 0-10 4.476562-10 10v140c0 5.523438 4.476562 10 10 10h140c5.523438 0 10-4.476562 10-10zm-20-70.726562c-30.609375-4.398438-54.875-28.664063-59.273438-59.273438h59.273438zm10-139.273438c38.597656 0 70 31.402344 70 70 0 35.203125-26.125 64.40625-60 69.273438v-69.273438c0-5.523438-4.476562-10-10-10h-69.273438c4.867188-33.875 34.070313-60 69.273438-60zm-130 200v-120h40.558594c4.625 41.652344 37.789062 74.816406 79.441406 79.441406v40.558594zm0 0"/></svg>