<?xml version="1.0" encoding="iso-8859-1"?>
<!-- Generator: Adobe Illustrator 19.0.0, SVG Export Plug-In . SVG Version: 6.00 Build 0)  -->
<svg version="1.1" id="Capa_1" xmlns="http://www.w3.org/2000/svg" xmlns:xlink="http://www.w3.org/1999/xlink" x="0px" y="0px"
	 viewBox="0 0 512 512" style="enable-background:new 0 0 512 512;" xml:space="preserve">
<path d="M98.462,108.305c30.996,0,60.17-14.592,78.769-39.385c32.63,43.5,94.346,52.322,137.846,19.692
	c7.463-5.602,14.09-12.229,19.692-19.692c18.599,24.793,47.774,39.385,78.769,39.385c54.38,0,98.462-44.081,98.462-98.462h-39.385
	c0,32.63-26.447,59.077-59.077,59.077s-59.077-26.447-59.077-59.077h-39.385c0,32.63-26.447,59.077-59.077,59.077
	s-59.077-26.447-59.077-59.077h-39.385c0,32.63-26.447,59.077-59.077,59.077S39.385,42.463,39.385,9.843H0
	C0,64.223,44.081,108.305,98.462,108.305z"/>
<path d="M413.538,265.843c-32.63,0-59.077-26.447-59.077-59.077h-39.385c0,32.63-26.447,59.077-59.077,59.077
	s-59.077-26.447-59.077-59.077h-39.385c0,32.63-26.447,59.077-59.077,59.077s-59.077-26.447-59.077-59.077H0
	c0,54.38,44.081,98.462,98.462,98.462c30.996,0,60.17-14.592,78.769-39.385c32.63,43.5,94.346,52.322,137.846,19.692
	c7.463-5.602,14.09-12.229,19.692-19.692c32.63,43.5,94.346,52.322,137.846,19.692C497.408,266.936,512,237.762,512,206.766h-39.385
	C472.615,239.386,446.169,265.843,413.538,265.843z"/>
<path d="M413.538,462.766c-32.63,0-59.077-26.447-59.077-59.077h-39.385c0,32.63-26.447,59.077-59.077,59.077
	s-59.077-26.447-59.077-59.077h-39.385c0,32.63-26.447,59.077-59.077,59.077s-59.077-26.447-59.077-59.077H0
	c0,54.38,44.081,98.462,98.462,98.462c30.996,0,60.17-14.592,78.769-39.385c32.63,43.5,94.346,52.322,137.846,19.692
	c7.463-5.602,14.09-12.229,19.692-19.692c32.63,43.5,94.346,52.322,137.846,19.692C497.408,463.859,512,434.685,512,403.689h-39.385
	C472.615,436.31,446.169,462.766,413.538,462.766z"/>
<g>
</g>
<g>
</g>
<g>
</g>
<g>
</g>
<g>
</g>
<g>
</g>
<g>
</g>
<g>
</g>
<g>
</g>
<g>
</g>
<g>
</g>
<g>
</g>
<g>
</g>
<g>
</g>
<g>
</g>
</svg>
