<svg
  xmlns="http://www.w3.org/2000/svg"
  version="1.1"
  xmlns-xlink="http://www.w3.org/1999/xlink"
  xmlns-svgjs="http://svgjs.com/svgjs"
  width="1920"
  height="1080"
  preserveAspectRatio="none"
  viewBox="0 0 1920 1200"
>
  <path
    d="M438.38 873.36a5.6 5.6 0 1 0-9.91 5.21 5.6 5.6 0 1 0 9.91-5.21zM424.22 880.81a5.6 5.6 0 1 0-9.92 5.21 5.6 5.6 0 1 0 9.92-5.21zM410.06 888.25a5.6 5.6 0 1 0-9.92 5.21 5.6 5.6 0 1 0 9.92-5.21zM395.89 895.7a5.6 5.6 0 1 0-9.91 5.21 5.6 5.6 0 1 0 9.91-5.21zM459.26 844.31a5.6 5.6 0 1 0-9.91 5.21 5.6 5.6 0 1 0 9.91-5.21zM445.1 851.75a5.6 5.6 0 1 0-9.92 5.22 5.6 5.6 0 1 0 9.92-5.22zM430.94 859.2a5.6 5.6 0 1 0-9.92 5.21 5.6 5.6 0 1 0 9.92-5.21zM416.77 866.64a5.6 5.6 0 1 0-9.91 5.22 5.6 5.6 0 1 0 9.91-5.22z"
    fill="rgba(247, 118, 107, 1)"
  ></path>
</svg>